<svg id="Layer_1" data-name="Layer 1" xmlns="http://www.w3.org/2000/svg" viewBox="0 0 273.02 130.55"><defs><style>.cls-1{fill:#fff;}</style></defs><path class="cls-1" d="M216.76,42.48c-5.59,1-10.65,1.67-15.64,2.73-2.32.48-3.52-.1-4-2.36-.1-.48-.16-1-.27-1.47-1.7-8.24-1.73-8.36,6.12-10.21,6.61-1.56,13.26-3,20-4.16,9.71-1.73,13.57,2.7,9.83,11.75-5.57,13.49-10.54,27.11-13.22,41.53-.84,4.48.1,5.87,4.71,6,10.94.4,21.72,2.29,32.48,4.29,2.3.42,2.71,1.48,2.42,3.37-.33,2.13-.83,4.24-1,6.39s-1.38,2.46-3,2.36c-15.56-.91-31.15-1-46.65-3-4.07-.52-5.11-2.48-4.54-6,1.92-11.6,5.11-22.91,8-34.28C213.33,54,215,48.51,216.76,42.48Z"/><path class="cls-1" d="M21.85,43.73c-3-.71-6.93,1.34-8-1.33-1.49-3.66-1.38-8-1.55-12.15-.08-1.7,1.73-1.72,3.18-1.72,15.16,0,30.15-2.3,45.24-3.34A40.63,40.63,0,0,1,64.83,25c3.76.15,7.52-.11,7.59,5.64.1,7.85-.25,8.78-6.74,9.69-4.09.58-8.19,1.58-12.27,1.54-5,0-6.18,1.85-5.88,6.6.83,13-1.09,26-1.1,39,0,3-1.22,3.49-3.86,3.61-11.82.54-11.82.62-12.24-11.42C30,69.79,29.93,60,29,50.13,28.47,44.57,27.21,42.13,21.85,43.73Z"/><path class="cls-1" d="M203.13,77.06c.23,7.28.06,7.5-7.38,8.4a37.82,37.82,0,0,1-13.86-.86c-9-2.28-14.53-8.39-15.62-17.74s-1.9-18.78-2.85-28.17c-.27-2.65.52-3.79,3.55-3.87,11.32-.32,11.35-.45,12.36,10.74.38,4.14.64,8.29.89,12.43.41,7,2.88,9.79,9.76,10.94a38.37,38.37,0,0,0,5.45.52C202.9,69.62,202.9,69.59,203.13,77.06Z"/><path class="cls-1" d="M142.26,62c-.34-6.84-.61-15.89-1.31-24.91-.33-4.17,1.81-6.5,5.18-6,3.65.49,9.59-2.34,10.45,4.41C157.94,46.2,159,57,160,67.69c.52,5.48.66,11,1.11,16.47.25,3.12-.68,4.93-4.1,4.89-1.37,0-2.74.32-4.12.36-7.43.25-9.86-1.89-10.51-9.22-.05-.59-.08-1.18-.08-1.77C142.25,73.7,142.26,69,142.26,62Z"/><path class="cls-1" d="M138.79,87.08c0-1.18,0-2.36,0-3.54-.81-16.7-2.38-33.2-10.92-48.17-7.59-13.29-6.59-5.29-9.59-2.29-2.32,2.33,2-22-10.63,1.17-1.39,2.55-3.24,5-4.2,7.7-3.34,9.59-6.73,19.09-8,29.37-.74,6,1.2,7.39,6.19,7.53,2.16.06,4.32.26,6.48.29,1.64,0,3.23-.21,3.35-2.39.27-4.89,4.1-3.11,6.67-3.44,3.42-.45,3.55,2.38,4,4.62a132.34,132.34,0,0,1,2,13.37c.27,3.8,2.38,4.36,5.47,4.51C138.57,96.24,138.84,96.05,138.79,87.08Zm-19-25.83c-2.92,1.18-6.41,2.76-8.84.87-2.75-2.13-.88-5.59.24-8.46,1.82-4.68,1.74-10.12,6.2-15.61,1.54,6.05,2.8,10.7,3.88,15.4C121.91,56.2,124.43,59.38,119.8,61.25Z"/><path class="cls-1" d="M91.62,76.23c-2.23-3.11-2.49-5.26-1.73-8.73,2.92-13.32-2.64-22.18-15-23.78a57.71,57.71,0,0,0-14.14.19c-3.84.45-7.55,2.21-6.91,7.13,1.11,8.66.29,17.33.87,26q0,11.53,0,23.07c0,2.49.41,5,3,5.86,4.52,1.44,9.23.42,13.28-1.29,3.13-1.33,1-5.27,1.15-8a39.41,39.41,0,0,0-.83-7c-.52-3.66,1.33-3.69,3.71-2.26,5,3,6.28,7.78,5.71,13.25-.32,3.11.28,6.07,4,5.55,4-.54,9.66,3.27,11.5-3.52A30.31,30.31,0,0,0,91.62,76.23ZM72.77,72.47c-1.9-3.07-3.11-4.15-3.17-5.29-.31-5.72-2.85-11.48.15-17.09.07-.13,3.81.89,4.73,2.17C79.17,58.83,76.41,64.67,72.77,72.47Z"/><path class="cls-1" d="M71.52,57c-1.16,2.17-.18,4.4-.06,6.61,0,.44.49.86,1.23,2,1.4-3,2.47-5.27.65-7.81A3.73,3.73,0,0,0,71.52,57Z"/><path class="cls-1" d="M95,27.78c-5.21.69-10.21,7.47-9,12.28,2.21-2.24,4.15-4.77,7.7-5.83l-3.46,4,4.45-1.59a6.64,6.64,0,0,1,1.14-.79,6.64,6.64,0,0,0-1.14.79L90.2,38.18c-.71.87-1.42,2-.84,3,.7,1.1,2.16.61,3.3.44a8,8,0,0,0,1.74-.7,7.24,7.24,0,0,0,3.87-2.49,25.21,25.21,0,0,0,4.48-6c2.22-3.75,2.19-3.74-2-4.43A19.6,19.6,0,0,0,95,27.78Z"/><path class="cls-1" d="M184.35,16.41c-2.88-.49-5.13.84-6.79,3.12a10.26,10.26,0,0,0-2.14,6.2c-.3,1.55.16,3.15,1.61,3.4s2.45-1.3,3.17-2.62l.58-.23c.68,1.2.47,2.53.59,3.8.12-.35.33-.44.64-.24.38-.77.77-1.53,1.82-.93l1,.86,0-.2.19,0,1.72-.87a11.16,11.16,0,0,0,3.41-3.43l-.2-.59a4.23,4.23,0,0,0-.48,0,4.23,4.23,0,0,1,.48,0,2.81,2.81,0,0,0,.44-2.86C189.25,19.06,187.41,16.93,184.35,16.41Zm-.49,12.4-.07-.34h.29Z"/><path class="cls-1" d="M179.39,99.12c-3.38-.89-6.32.4-7.46,3.29-1.2,3.08.13,6.2,3.32,7.77,4.15,2,8.42,1.29,11.87-2.08a12.13,12.13,0,0,0,.53-15.69,12.5,12.5,0,0,0-14.86-3.5c-5.08,2.27-7.84,8.48-6.48,14.62,4.5-7.37,10.32-9.07,14.86-4.33C180.55,100,180,99.28,179.39,99.12Z"/><path class="cls-1" d="M192.73,52.93c-1.61,1-3.21,2-5.27,3.35,3.81,1.31,7.1,2.76,10.55,3.53,2.9.65,6.63.73,7.09-3.17.43-3.65-3.09-4.73-6-5.28A8.93,8.93,0,0,0,192.73,52.93Z"/><path class="cls-1" d="M116.85,91.89a7.39,7.39,0,0,1,5.34,5.4c1.17,3.85-1.82,9.6-6,11.77-7.7.16-10.94-1.74-12.19-7-1.49-6.3,3.3-16.47,10.62-19-2.1,4.41-4.93,8.33-4.69,13.25-.32.73-.52,1.44.14,2.1.17-.69,1.08-1.44-.06-2.06C111.83,94.11,113.07,90.94,116.85,91.89Z"/><path class="cls-1" d="M20.37,110.57c4.53,2.6,9,4.79,14.15,5a44.86,44.86,0,0,0,6.45.07c7.44-.94,9.06-4.77,4.75-10.88-7.15-10.15-21.51-9.72-29.58.93,2.24.56,4.18-1,6.29-.82,2.27.15,4.86-2,6.76.9C26.33,107.21,22.85,107.5,20.37,110.57Z"/></svg>